HIERARCHY
ROOT Hips
{
	OFFSET 0.00000 0.00000 0.00000
	CHANNELS 6 Xposition Yposition Zposition Yrotation Zrotation Xrotation 
	JOINT Lumbar
	{
		OFFSET 0 0 0
		CHANNELS 3 Zrotation Xrotation Yrotation
		JOINT Neck
		{
			OFFSET 0.00 0.2701 0.00
			CHANNELS 3 Zrotation Xrotation Yrotation
			End Site
			{
				OFFSET 0.00 0.1379 0.00
			}
		}
		JOINT RightShoulder
		{
			OFFSET 0.0119 0.2289 0.1181
			CHANNELS 3 Zrotation Xrotation Yrotation
			JOINT RightElbow
			{
				OFFSET 0.00 -0.1475 0.00
				CHANNELS 2 Zrotation Yrotation
				JOINT RightWrist
				{
					OFFSET 0.00 -0.1605 0.00
					CHANNELS 2 Zrotation Xrotation
					End Site
					{
						OFFSET 0.0040 -0.1068 0.0006
					}
				}
			}
		}
		JOINT LeftShoulder
		{
			OFFSET 0.0119 0.2289 -0.1181
			CHANNELS 3 Zrotation Xrotation Yrotation
			JOINT LeftElbow
			{
				OFFSET 0.00 -0.1475 0.00
				CHANNELS 2 Zrotation Yrotation
				JOINT LeftWrist
				{
					OFFSET 0.00 -0.1605 0.00
					CHANNELS 2 Zrotation Xrotation
					End Site
					{
						OFFSET 0.0040 -0.1068 -0.0006
					}
				}
			}
		}
	}
	JOINT RightHip
	{
		OFFSET 0.0316 -0.0424 0.0458
		CHANNELS 3 Zrotation Xrotation Yrotation
		JOINT RightKnee
		{
			OFFSET 0.00 -0.2438 0.00
			CHANNELS 1 Zrotation
			JOINT RightAnkle
			{
				OFFSET 0.00 -0.2449 0.00
				CHANNELS 3 Zrotation Xrotation Yrotation
				End Site
				{
					OFFSET 0.1237 -0.0542 0.0051
				}
			}
		}
	}
	JOINT LeftHip
	{
		OFFSET 0.0316 -0.0424 -0.0458
		CHANNELS 3 Zrotation Xrotation Yrotation
		JOINT LeftKnee
		{
			OFFSET 0.00 -0.2438 0.00
			CHANNELS 1 Zrotation
			JOINT LeftAnkle
			{
				OFFSET 0.00 -0.2449 0.00
				CHANNELS 3 Zrotation Xrotation Yrotation
				End Site
				{
					OFFSET 0.1237 -0.0542 -0.0051
				}
			}
		}
	}
}
MOTION
Frames: 31
Frame Time: 0.02
-0.42028 0.56755 -0.33927 244.18075 0 -4.9577 2.55162 3.07994 2.64734 -20.57238 -5.79034 -2.5368 15.52018 -11.82399 42.72095 72.60976 72.41014 17.92541 -5.53586 15.07783 31.75589 -53.07777 87.12284 -106.04497 -33.51278 6.53938 11.14924 4.67751 9.988 -27.16753 4.53752 -0.20118 5.07397 5.80034 7.81531 -7.58392 -20.75783 12.17145 7.27982 6.11501
-0.41538 0.56782 -0.33869 243.14586 0 -4.85097 2.37959 2.88071 2.58834 -20.44999 -5.65576 -2.58763 15.27222 -11.82309 42.44584 72.73654 71.00392 18.76863 -5.71658 15.37822 32.02411 -53.59278 87.35707 -107.3676 -32.24515 6.87594 11.67181 4.31642 10.51977 -27.4893 4.15197 -0.14475 5.3354 5.086 7.38364 -6.8503 -19.45813 11.91805 7.36463 6.41864
-0.4104 0.56815 -0.3385 242.13427 0 -4.74558 2.12369 2.66918 2.56872 -20.15709 -5.48432 -2.58451 14.86268 -11.82698 42.31919 72.87591 69.46535 19.42783 -5.92009 15.58225 32.28819 -54.20724 87.55961 -108.91143 -30.76745 7.27747 12.18373 3.98163 11.03853 -27.69233 3.71047 -0.11411 5.53206 4.36866 6.96084 -6.2153 -18.02545 11.58273 7.36881 6.66878
-0.40545 0.56845 -0.33816 241.11301 0 -4.64617 1.89942 2.46899 2.52605 -19.93284 -5.3343 -2.60318 14.52472 -11.82855 42.16167 73.02145 68.03406 20.11469 -6.11218 15.80957 32.55237 -54.77743 87.7736 -110.3051 -29.43238 7.63607 12.6918 3.64177 11.56374 -27.92505 3.29459 -0.07473 5.75012 3.67506 6.54218 -5.50413 -16.68666 11.29323 7.39838 6.91818
-0.40051 0.56877 -0.3377 240.08911 0 -4.518 1.69955 2.24483 2.5026 -19.7418 -5.16042 -2.63128 14.18972 -11.83499 41.85043 73.12201 66.3968 21.04237 -6.31071 16.12083 32.81981 -55.34733 87.99941 -111.90712 -27.89755 8.05058 13.23894 3.27094 12.08947 -28.25744 2.87071 -0.02275 6.00503 2.88623 6.08579 -4.92352 -15.20127 10.96525 7.47447 7.27195
-0.39555 0.56906 -0.33758 239.07656 0 -4.45037 1.43084 2.06731 2.45018 -19.44421 -5.02863 -2.62782 13.81324 -11.83143 41.89037 73.31551 65.15876 21.42721 -6.50043 16.23739 33.081 -55.93831 88.19306 -113.13311 -26.72562 8.3657 13.69945 2.97212 12.60764 -28.35478 2.45621 -0.004 6.1636 2.2949 5.71134 -4.10034 -13.9906 10.69767 7.43674 7.39997
-0.39045 0.56927 -0.33826 238.08023 0 -4.54962 0.98365 2.02465 2.29909 -18.87578 -5.02785 -2.5495 13.34736 -11.79092 42.9129 73.7841 65.06855 20.30546 -6.66123 15.81524 33.32684 -56.58474 88.30904 -113.20318 -26.65197 8.37274 13.94566 2.85915 13.13522 -27.83896 2.04151 -0.05988 6.11097 2.2553 5.56088 -2.52007 -13.58489 10.63075 7.0817 6.87143
-0.38535 0.56946 -0.33926 237.09629 0 -4.70962 0.47233 2.02863 2.11947 -18.21019 -5.07049 -2.44181 12.84881 -11.7409 44.27504 74.34139 65.38321 18.65205 -6.8121 15.20552 33.5667 -57.24473 88.39333 -112.8968 -26.94363 8.28029 14.10098 2.81904 13.64959 -27.09204 1.64635 -0.15004 5.95719 2.41373 5.49287 -0.70474 -13.45865 10.62518 6.61907 6.12643
-0.38028 0.56966 -0.34012 236.11215 0 -4.84227 -0.00386 2.00944 1.95902 -17.6009 -5.08984 -2.34841 12.37476 -11.70002 45.45003 74.8434 65.50538 17.27556 -6.96637 14.69734 33.80973 -57.88409 88.48999 -112.80581 -27.03869 8.24535 14.28308 2.75018 14.15345 -26.44413 1.26847 -0.23166 5.82326 2.47794 5.3879 0.96377 -13.1963 10.5832 6.22032 5.50957
-0.37505 0.56985 -0.34095 235.10465 0 -4.97491 -0.50948 1.99881 1.77347 -16.9326 -5.12197 -2.2489 11.85298 -11.63949 46.76881 75.40878 65.65947 15.74472 -7.12545 14.11527 34.05184 -58.58787 88.59387 -112.54217 -27.2533 8.16236 14.5256 2.66423 14.73058 -25.80847 0.77704 -0.28513 5.79417 2.5597 5.28185 2.80279 -12.96748 10.57505 5.75514 4.76243
-0.37018 0.57005 -0.34192 234.15007 0 -5.12065 -0.96643 1.98078 1.63324 -16.36856 -5.13939 -2.15614 11.42658 -11.61701 47.86663 75.86348 65.84395 14.4103 -7.27272 13.64596 34.29299 -59.15957 88.67589 -112.53751 -27.31111 8.15303 14.6215 2.63029 15.14712 -25.10519 0.52889 -0.40424 5.52748 2.65216 5.19651 4.33728 -12.73711 10.51113 5.40431 4.23943
-0.36625 0.5703 -0.34313 233.32484 0 -5.29926 -1.28561 1.93792 1.62248 -16.09742 -5.09632 -2.08718 11.25777 -11.70652 48.27208 75.98691 66.0221 13.76026 -7.38172 13.51504 34.54587 -59.361 88.70275 -113.41078 -26.82418 8.38794 14.3284 2.72678 15.16689 -24.17645 0.93566 -0.70246 4.59653 2.72486 5.15734 5.03137 -12.43442 10.2874 5.3913 4.3569
-0.36268 0.57056 -0.34447 232.55516 0 -5.4868 -1.5508 1.88492 1.65874 -15.93832 -5.03877 -2.02679 11.18883 -11.83385 48.44246 75.99648 66.21516 13.32587 -7.4803 13.50736 34.79545 -59.4288 88.70922 -114.54362 -26.17187 8.69711 13.89182 2.87204 15.01786 -23.20604 1.58861 -1.06394 3.43692 2.80204 5.13464 5.40181 -12.12173 10.00453 5.49796 4.71231
-0.35898 0.5708 -0.34576 231.76857 0 -5.66265 -1.83225 1.83182 1.67485 -15.74186 -4.99426 -1.96396 11.08479 -11.94066 48.7193 76.06079 66.39721 12.78466 -7.58916 13.45703 35.03828 -59.55895 88.72705 -115.50978 -25.61133 8.961 13.52557 2.99192 14.91718 -22.31782 2.13773 -1.39265 2.40329 2.87729 5.09812 5.88128 -11.81333 9.7426 5.55348 4.98122
-0.35516 0.57108 -0.34702 230.94607 0 -5.87282 -2.15119 1.79956 1.68433 -15.48715 -4.92441 -1.89352 10.93864 -12.06077 49.01004 76.11587 66.61417 12.25818 -7.67536 13.34667 35.31635 -59.68346 88.73548 -116.66752 -24.99422 9.26973 13.13578 3.12822 14.93413 -21.15441 2.65566 -1.74087 1.27093 2.95754 5.09042 6.52437 -11.51327 9.50616 5.59288 5.15624
-0.35168 0.57129 -0.34837 230.21285 0 -6.01286 -2.37807 1.72168 1.7198 -15.37854 -4.90277 -1.84186 10.90116 -12.16284 49.21104 76.1616 66.75295 11.76399 -7.80506 13.38937 35.51955 -59.78698 88.75832 -117.49413 -24.44971 9.5045 12.76054 3.2406 14.66824 -20.55732 3.29408 -2.06136 0.29374 3.02769 5.02656 6.75325 -11.19288 9.20385 5.69396 5.57984
-0.34905 0.57132 -0.34993 229.69998 0 -5.95658 -2.366 1.51334 1.81007 -15.67375 -5.02289 -1.83546 11.1677 -12.20083 49.22456 76.21191 66.70348 11.26716 -8.06908 13.85743 35.5238 -59.87174 88.83279 -117.33101 -24.15558 9.51271 12.47417 3.27759 13.64473 -21.53428 4.22717 -2.30342 -0.21888 3.05204 4.79438 5.86042 -10.79134 8.71601 5.95171 6.68723
-0.34676 0.57128 -0.35157 229.27729 0 -5.8292 -2.26245 1.26058 1.92608 -16.10755 -5.19098 -1.84844 11.53534 -12.22011 49.15374 76.25565 66.56765 10.80494 -8.3751 14.4701 35.45184 -59.9386 88.92151 -116.8291 -23.93693 9.44506 12.20509 3.28802 12.34596 -23.08249 5.268 -2.51236 -0.56266 3.06815 4.50651 4.57135 -10.37317 8.16683 6.26506 8.02739
-0.34433 0.57126 -0.3532 228.82154 0 -5.73443 -2.19904 1.03236 2.03394 -16.46003 -5.33339 -1.85589 11.83785 -12.25158 49.11783 76.3005 66.44796 10.35569 -8.65434 14.996 35.40988 -60.00946 88.99915 -116.49281 -23.67534 9.41552 11.91994 3.30844 11.18486 -24.37198 6.24585 -2.72777 -0.97091 3.09813 4.24967 3.50006 -9.97958 7.65753 6.5432 9.22549
-0.34183 0.57128 -0.35474 228.33444 0 -5.63883 -2.1397 0.78505 2.1282 -16.89331 -5.4912 -1.85059 12.22351 -12.26976 49.08795 76.35001 66.42379 9.79414 -8.96576 15.61498 35.38618 -60.09359 89.09477 -116.11891 -23.44352 9.37369 11.66538 3.33914 9.96419 -25.66143 7.29469 -2.98297 -1.44128 3.08588 3.96896 2.25868 -9.51506 7.09623 6.86727 10.58449
-0.33955 0.57122 -0.35648 227.93312 0 -5.52786 -2.05105 0.56756 2.25658 -17.19035 -5.62914 -1.87535 12.46032 -12.3095 49.02902 76.38888 66.18343 9.46985 -9.2202 16.07279 35.3079 -60.14699 89.15749 -115.73607 -23.17119 9.33782 11.35189 3.34179 8.80513 -27.08053 8.21401 -3.14494 -1.73625 3.15924 3.72495 1.28133 -9.19305 6.62854 7.10752 11.66107
-0.33773 0.57096 -0.35868 227.74845 0 -5.39227 -1.90264 0.43933 2.4704 -17.07145 -5.69549 -1.98709 12.2471 -12.42248 48.90665 76.40746 65.33774 9.81048 -9.3072 16.04988 35.08524 -60.12536 89.1186 -115.44133 -22.75709 9.34242 10.88201 3.27093 7.87857 -28.77287 8.78326 -3.07285 -1.61446 3.47363 3.59194 1.13364 -9.27997 6.44209 7.10054 11.89565
-0.33611 0.57062 -0.36108 227.64651 0 -5.24346 -1.7287 0.3434 2.71789 -16.81097 -5.74152 -2.12679 11.88285 -12.55539 48.75986 76.41457 64.284 10.38411 -9.3352 15.85903 34.81311 -60.07301 89.04776 -115.14305 -22.30313 9.35419 10.35079 3.1733 7.02547 -30.56387 9.21147 -2.90598 -1.31777 3.87405 3.49844 1.26589 -9.50869 6.35063 7.00702 11.83789
-0.33441 0.57032 -0.36343 227.50504 0 -5.10046 -1.56712 0.23532 2.9514 -16.61883 -5.79971 -2.24791 11.59644 -12.6736 48.62789 76.42276 63.34324 10.8383 -9.3904 15.74489 34.57106 -60.03193 88.99618 -114.82473 -21.87499 9.35879 9.8417 3.08892 6.14265 -32.27651 9.67994 -2.77082 -1.08039 4.23319 3.3893 1.26969 -9.66517 6.21109 6.95407 11.91601
-0.33269 0.57002 -0.36563 227.37436 0 -4.95611 -1.39779 0.11507 3.18035 -16.41558 -5.84577 -2.39442 11.27431 -12.81704 48.47693 76.44868 62.31693 11.3517 -9.44631 15.635 34.29216 -60.0018 88.9243 -114.58362 -21.41445 9.37751 9.35818 2.99774 5.23396 -34.15908 10.2504 -2.67814 -0.91475 4.60081 3.26836 1.26624 -9.85438 6.09079 6.89824 11.98908
-0.33105 0.56971 -0.36819 227.24038 0 -4.81197 -1.24138 0.02835 3.42633 -16.19894 -5.91347 -2.49456 10.98998 -12.91033 48.36107 76.4343 61.42648 11.79582 -9.48505 15.47349 34.0819 -59.94144 88.88791 -114.1884 -21.01397 9.36924 8.80561 2.91635 4.40105 -35.69303 10.57674 -2.48039 -0.56998 4.97184 3.18222 1.3476 -10.00883 5.95293 6.8267 12.00088
-0.32956 0.56939 -0.37163 227.07093 0 -4.67583 -1.11442 0.02801 3.71199 -15.98746 -6.03006 -2.45832 10.84037 -12.88265 48.3469 76.31815 60.91142 11.99977 -9.50009 15.21736 34.05088 -59.80862 88.94887 -113.34267 -20.7619 9.2875 8.08703 2.85502 3.7545 -36.32902 10.23401 -1.96818 0.30964 5.32719 3.18254 1.61399 -10.03699 5.75124 6.73591 11.90724
-0.32813 0.56907 -0.37545 226.89624 0 -4.54033 -1.00471 0.06072 4.01322 -15.76464 -6.17178 -2.37447 10.73414 -12.79998 48.3694 76.16081 60.55006 12.12536 -9.49774 14.91264 34.09503 -59.64593 89.04813 -112.34859 -20.57532 9.17844 7.29984 2.80746 3.18452 -36.5916 9.65506 -1.36235 1.34751 5.68411 3.21718 1.9545 -10.02476 5.52751 6.63146 11.76212
-0.32667 0.56874 -0.37914 226.72714 0 -4.40163 -0.89503 0.07682 4.3068 -15.54217 -6.31223 -2.3135 10.61258 -12.72754 48.37657 76.01771 60.15214 12.27986 -9.49732 14.62541 34.1201 -59.4947 89.13537 -111.44092 -20.37757 9.08008 6.53687 2.76215 2.58349 -36.96363 9.20351 -0.83089 2.2573 6.04258 3.2359 2.25045 -10.02797 5.30895 6.531 11.64472
-0.32523 0.56846 -0.38264 226.54636 0 -4.27303 -0.74884 0.09871 4.6045 -15.33771 -6.4094 -2.24893 10.46966 -12.71698 48.37788 75.89232 59.60676 12.4662 -9.5209 14.35344 34.0805 -59.35119 89.19885 -110.45229 -20.10429 8.98814 5.79858 2.67853 1.96693 -37.59257 8.66396 -0.16239 3.40909 6.39316 3.25577 2.60183 -10.04754 5.11389 6.43685 11.49975
-0.32377 0.56808 -0.38663 226.38891 0 -4.12584 -0.68606 0.11851 4.89624 -15.09162 -6.60262 -2.17933 10.38055 -12.56562 48.39958 75.72141 59.40721 12.57038 -9.49008 14.03829 34.19313 -59.18508 89.3212 -109.59769 -19.99897 8.87758 4.99661 2.68014 1.40256 -37.59793 8.25154 0.24249 4.09376 6.76108 3.28283 2.85175 -10.0227 4.86371 6.32754 11.40284
